<?xml version="1.0" encoding="UTF-8"?>
<svg version="1.1" xmlns="http://www.w3.org/2000/svg" width="512" height="512">
<path d="M0 0 C0.73920181 -0.00705963 1.47840363 -0.01411926 2.24000549 -0.02139282 C32.58492712 -0.24552568 32.58492712 -0.24552568 45.9765625 3.203125 C46.7794873 3.39648438 47.58241211 3.58984375 48.40966797 3.7890625 C79.08169377 11.27088923 104.30129419 26.63642536 126.9765625 48.203125 C127.92595703 49.07324219 127.92595703 49.07324219 128.89453125 49.9609375 C155.4263214 75.04324743 174.03788254 115.64607026 175.09008789 152.140625 C175.08993294 153.49480199 175.08448861 154.84898694 175.07421875 156.203125 C175.07209633 157.28484985 175.07209633 157.28484985 175.06993103 158.38842773 C175.06439631 160.66003824 175.05185673 162.931545 175.0390625 165.203125 C175.03403904 166.75650898 175.02947762 168.30989452 175.02539062 169.86328125 C175.01444839 173.64326828 174.9972301 177.42317914 174.9765625 181.203125 C175.88196777 181.18741455 176.78737305 181.1717041 177.72021484 181.15551758 C211.9347525 180.64027769 211.9347525 180.64027769 225.9765625 184.203125 C226.80510742 184.40711914 227.63365234 184.61111328 228.48730469 184.82128906 C240.50831109 187.84303491 251.85094707 191.74357463 262.9765625 197.203125 C263.59160645 197.49912598 264.20665039 197.79512695 264.84033203 198.10009766 C281.08429799 205.99807007 295.09921713 216.61556518 307.9765625 229.203125 C308.67652344 229.84121094 309.37648438 230.47929687 310.09765625 231.13671875 C332.06231968 251.64011559 346.3298659 281.28101275 352.9765625 310.203125 C353.29496094 311.47542969 353.61335938 312.74773437 353.94140625 314.05859375 C358.66225994 335.16926969 358.21738439 361.26105533 352.9765625 382.203125 C352.81559082 382.90356934 352.65461914 383.60401367 352.48876953 384.32568359 C348.59454448 401.19317711 341.43006784 416.9285466 333.4519043 432.23095703 C328.91349388 440.97916268 328.52409608 450.90133769 331.1015625 460.453125 C334.83633391 471.03208216 340.91238672 478.31289903 350.2890625 484.328125 C353.30415996 486.43168137 354.36005662 487.92830706 355.9765625 491.203125 C356.80541519 496.75121104 356.700632 501.67453383 354.2890625 506.765625 C350.99939003 510.23311761 348.50082118 512.02864245 343.67856312 512.58064842 C342.41604064 512.5817795 341.15351816 512.58291058 339.85273743 512.58407593 C338.79344702 512.59109589 338.79344702 512.59109589 337.71275681 512.59825766 C335.35168783 512.61020136 332.99120001 512.60075264 330.63012695 512.59130859 C328.93447532 512.59537506 327.23882634 512.60071736 325.54318237 512.60723877 C320.93697887 512.62092281 316.33097688 512.61560564 311.72476983 512.60610151 C306.88984661 512.59849446 302.0549404 512.60555493 297.22001648 512.61026001 C289.08666909 512.61572131 280.95340335 512.60852324 272.82006836 512.59423828 C263.45729728 512.57798237 254.09472292 512.58314712 244.73195678 512.5997175 C236.67047788 512.6134073 228.60905768 512.61521355 220.54757088 512.60740149 C215.74373584 512.60275668 210.93999262 512.60200964 206.13616371 512.61201096 C201.60444639 512.62078532 197.07297743 512.61447126 192.54128647 512.59732819 C190.89275077 512.59341538 189.24419357 512.59440594 187.59566689 512.60111618 C172.60457853 512.6564281 158.03167866 510.80608586 143.6015625 506.578125 C142.73708496 506.32651611 141.87260742 506.07490723 140.98193359 505.81567383 C114.62452925 497.79375122 92.73624993 483.02187493 72.9765625 464.203125 C72.25855469 463.53796875 71.54054687 462.8728125 70.80078125 462.1875 C44.43686113 437.03875054 25.9138699 396.71257398 24.86303711 360.265625 C24.86319206 358.91144801 24.86863639 357.55726306 24.87890625 356.203125 C24.88102867 355.12140015 24.88102867 355.12140015 24.88319397 354.01782227 C24.88872869 351.74621176 24.90126827 349.474705 24.9140625 347.203125 C24.91908596 345.64974102 24.92364738 344.09635548 24.92773438 342.54296875 C24.93867661 338.76298172 24.9558949 334.98307086 24.9765625 331.203125 C24.0956513 331.20681217 23.2147401 331.21049934 22.30713463 331.21429825 C0.87459049 331.30262798 -20.55792229 331.36882427 -41.99061012 331.41037369 C-52.35529745 331.43100064 -62.7198633 331.45912386 -73.08447266 331.50488281 C-82.11806201 331.54474641 -91.15156338 331.57055684 -100.18523824 331.57947898 C-104.96872242 331.58469452 -109.7519549 331.5969558 -114.53535843 331.62604523 C-119.03824704 331.65320675 -123.54078038 331.6615685 -128.04374313 331.65555573 C-129.69572633 331.65665563 -131.34772147 331.66460524 -132.99963379 331.6799469 C-135.25756581 331.69988716 -137.51416147 331.69505058 -139.77212524 331.68414307 C-141.66640983 331.68967382 -141.66640983 331.68967382 -143.59896278 331.69531631 C-147.68120098 331.10858628 -149.82524417 329.76036896 -153.0234375 327.203125 C-156.80557701 322.034201 -156.80763943 316.3660296 -156.0234375 310.203125 C-154.07003758 305.58599792 -151.25988282 303.59608466 -147.2109375 300.890625 C-138.09340187 294.76750829 -132.906764 286.34314019 -130.44140625 275.6875 C-128.44395369 263.8147913 -131.99821322 253.52865252 -137.7734375 243.203125 C-148.98624199 223.05540529 -156.07878419 199.31713731 -156.2265625 176.1796875 C-156.23362213 175.44048569 -156.24068176 174.70128387 -156.24795532 173.93968201 C-156.47246529 143.54370419 -156.47246529 143.54370419 -153.0234375 130.203125 C-152.82476074 129.38956543 -152.62608398 128.57600586 -152.42138672 127.73779297 C-145.74039943 100.75861509 -133.07321416 75.77169036 -114.04296875 55.375 C-112.27259612 53.47107895 -110.60957982 51.52421349 -108.9609375 49.515625 C-83.67116314 20.06769367 -38.52052396 0.24602961 0 0 Z " fill="#FED8FC" transform="translate(156.0234375,-0.203125)"/>
<path d="M0 0 C11.35153375 0.02203302 22.22739274 0.44939388 33.26916504 3.2510376 C34.51198242 3.55702881 34.51198242 3.55702881 35.77990723 3.86920166 C47.80091363 6.89094751 59.1435496 10.79148723 70.26916504 16.2510376 C71.19173096 16.69503906 71.19173096 16.69503906 72.13293457 17.14801025 C88.37690053 25.04598267 102.39181967 35.66347778 115.26916504 48.2510376 C115.96912598 48.88912354 116.66908691 49.52720947 117.39025879 50.18463135 C139.35492222 70.68802819 153.62246843 100.32892535 160.26916504 129.2510376 C160.58756348 130.52334229 160.90596191 131.79564697 161.23400879 133.10650635 C165.95486248 154.21718229 165.50998693 180.30896793 160.26916504 201.2510376 C160.10819336 201.95148193 159.94722168 202.65192627 159.78137207 203.37359619 C155.88714702 220.24108971 148.72267038 235.9764592 140.74450684 251.27886963 C136.20609642 260.02707528 135.81669862 269.94925029 138.39416504 279.5010376 C142.12893645 290.07999476 148.20498926 297.36081162 157.58166504 303.3760376 C160.5967625 305.47959397 161.65265916 306.97621966 163.26916504 310.2510376 C164.09801773 315.79912364 163.99323454 320.72244642 161.58166504 325.8135376 C158.29199257 329.2810302 155.79342372 331.07655504 150.97116566 331.62856102 C149.70864318 331.6296921 148.4461207 331.63082317 147.14533997 331.63198853 C146.43914636 331.6366685 145.73295276 331.64134847 145.00535935 331.64617026 C142.64429037 331.65811396 140.28380255 331.64866524 137.92272949 331.63922119 C136.22707786 331.64328766 134.53142888 331.64862996 132.83578491 331.65515137 C128.22958141 331.6688354 123.62357942 331.66351824 119.01737237 331.65401411 C114.18244915 331.64640706 109.34754294 331.65346752 104.51261902 331.65817261 C96.37927163 331.6636339 88.24600588 331.65643583 80.1126709 331.64215088 C70.74989982 331.62589497 61.38732546 331.63105972 52.02455932 331.6476301 C43.96308042 331.6613199 35.90166022 331.66312614 27.84017342 331.65531409 C23.03633838 331.65066928 18.23259516 331.64992224 13.42876625 331.65992355 C8.89704893 331.66869792 4.36557997 331.66238386 -0.16611099 331.64524078 C-1.81464669 331.64132797 -3.46320389 331.64231853 -5.11173058 331.64902878 C-20.10281893 331.70434069 -34.6757188 329.85399846 -49.10583496 325.6260376 C-49.9703125 325.37442871 -50.83479004 325.12281982 -51.72546387 324.86358643 C-78.08286821 316.84166382 -99.97114753 302.06978753 -119.73083496 283.2510376 C-120.80784668 282.25330322 -120.80784668 282.25330322 -121.90661621 281.2354126 C-147.77415979 256.56016061 -166.27425659 216.99531554 -167.81809998 181.22938538 C-167.8451295 179.16293825 -167.84367606 177.09884888 -167.82849121 175.0322876 C-167.82707626 174.28894165 -167.82566132 173.5455957 -167.82420349 172.77972412 C-167.81866605 170.43678531 -167.80612587 168.09394686 -167.79333496 165.7510376 C-167.78831185 164.14947649 -167.78375038 162.54791387 -167.77966309 160.9463501 C-167.76871723 157.04787472 -167.75149692 153.14947309 -167.73083496 149.2510376 C-167.09282959 149.1560498 -166.45482422 149.06106201 -165.79748535 148.9631958 C-147.3077428 146.1657444 -130.55730168 142.67420394 -113.73083496 134.2510376 C-112.43105044 133.63434908 -111.13021829 133.01986505 -109.82849121 132.4072876 C-100.81619752 128.11217242 -92.72681067 123.24271701 -84.73083496 117.2510376 C-83.88263184 116.61552979 -83.03442871 115.98002197 -82.16052246 115.32525635 C-71.15151167 106.77645858 -61.12347749 97.40600671 -52.73083496 86.2510376 C-51.93161621 85.20560791 -51.13239746 84.16017822 -50.30895996 83.08306885 C-41.48859188 71.30080363 -33.47949368 58.23681328 -28.73083496 44.2510376 C-28.33509277 43.16177979 -27.93935059 42.07252197 -27.53161621 40.95025635 C-22.99348174 28.04451056 -19.81462235 14.90675869 -18.73083496 1.2510376 C-15.69795146 -1.78184591 -4.47067157 0.00202271 0 0 Z " fill="#CA55FE" transform="translate(348.7308349609375,180.74896240234375)"/>
<path d="M0 0 C3.86544091 2.15413891 5.9521908 4.26681718 7.8125 8.375 C8.78311757 13.35750354 8.21596304 17.30800035 5.75 21.75 C2.62634077 26.15471048 -0.84624116 27.79505764 -6.16796875 28.71875 C-10.96475021 29.08987429 -14.00466181 27.88089286 -17.7109375 24.8515625 C-21.22161844 21.34088156 -22.36688624 17.77958984 -22.6875 12.9375 C-22.5030874 7.96674221 -20.72372868 4.80886416 -17.1875 1.375 C-11.49223558 -2.46311298 -6.23005992 -2.7624941 0 0 Z " fill="#F87DFE" transform="translate(233.1875,152.625)"/>
<path d="M0 0 C3.86544091 2.15413891 5.9521908 4.26681718 7.8125 8.375 C8.78311757 13.35750354 8.21596304 17.30800035 5.75 21.75 C2.62634077 26.15471048 -0.84624116 27.79505764 -6.16796875 28.71875 C-10.96475021 29.08987429 -14.00466181 27.88089286 -17.7109375 24.8515625 C-21.22161844 21.34088156 -22.36688624 17.77958984 -22.6875 12.9375 C-22.5030874 7.96674221 -20.72372868 4.80886416 -17.1875 1.375 C-11.49223558 -2.46311298 -6.23005992 -2.7624941 0 0 Z " fill="#F87DFE" transform="translate(173.1875,152.625)"/>
<path d="M0 0 C3.86544091 2.15413891 5.9521908 4.26681718 7.8125 8.375 C8.78311757 13.35750354 8.21596304 17.30800035 5.75 21.75 C2.62634077 26.15471048 -0.84624116 27.79505764 -6.16796875 28.71875 C-10.96475021 29.08987429 -14.00466181 27.88089286 -17.7109375 24.8515625 C-21.22161844 21.34088156 -22.36688624 17.77958984 -22.6875 12.9375 C-22.5030874 7.96674221 -20.72372868 4.80886416 -17.1875 1.375 C-11.49223558 -2.46311298 -6.23005992 -2.7624941 0 0 Z " fill="#F87DFE" transform="translate(113.1875,152.625)"/>
<path d="M0 0 C4.44283595 2.47773543 6.64509106 4.99777318 8.25 9.8125 C8.8247617 15.67506937 7.85317286 20.15966334 4.25 24.8125 C0.63414491 27.61263073 -2.81452345 28.68120504 -7.3125 29.3125 C-12.32244411 28.58378086 -16.0258666 27.10458322 -19.078125 23.046875 C-21.78840175 18.19891518 -22.53457921 14.30455448 -21.75 8.8125 C-17.18341267 -0.54526093 -9.72910759 -3.08088407 0 0 Z " fill="#FDBDF9" transform="translate(412.75,332.1875)"/>
<path d="M0 0 C4.44283595 2.47773543 6.64509106 4.99777318 8.25 9.8125 C8.8247617 15.67506937 7.85317286 20.15966334 4.25 24.8125 C0.63414491 27.61263073 -2.81452345 28.68120504 -7.3125 29.3125 C-12.32244411 28.58378086 -16.0258666 27.10458322 -19.078125 23.046875 C-21.78840175 18.19891518 -22.53457921 14.30455448 -21.75 8.8125 C-17.18341267 -0.54526093 -9.72910759 -3.08088407 0 0 Z " fill="#FDBDF9" transform="translate(352.75,332.1875)"/>
<path d="M0 0 C4.44283595 2.47773543 6.64509106 4.99777318 8.25 9.8125 C8.8247617 15.67506937 7.85317286 20.15966334 4.25 24.8125 C0.63414491 27.61263073 -2.81452345 28.68120504 -7.3125 29.3125 C-12.32244411 28.58378086 -16.0258666 27.10458322 -19.078125 23.046875 C-21.78840175 18.19891518 -22.53457921 14.30455448 -21.75 8.8125 C-17.18341267 -0.54526093 -9.72910759 -3.08088407 0 0 Z " fill="#FDBDF9" transform="translate(292.75,332.1875)"/>
</svg>
